<?xml version="1.0" encoding="UTF-8"?>
<!DOCTYPE svg PUBLIC "-//W3C//DTD SVG 1.1//EN" "http://www.w3.org/Graphics/SVG/1.1/DTD/svg11.dtd">
<svg xmlns="http://www.w3.org/2000/svg" version="1.1" width="32px" height="32px" style="shape-rendering:geometricPrecision; text-rendering:geometricPrecision; image-rendering:optimizeQuality; fill-rule:evenodd; clip-rule:evenodd" xmlns:xlink="http://www.w3.org/1999/xlink">
<g><path style="opacity:1" fill="#62a7fb" d="M -0.5,-0.5 C 2.5,-0.5 5.5,-0.5 8.5,-0.5C 5.83333,2.83333 2.83333,5.83333 -0.5,8.5C -0.5,5.5 -0.5,2.5 -0.5,-0.5 Z"/></g>
<g><path style="opacity:1" fill="#619ff3" d="M 8.5,-0.5 C 10.8333,-0.5 13.1667,-0.5 15.5,-0.5C 11.4349,3.5594 7.76828,7.89273 4.5,12.5C 2.59771,15.3373 1.93104,18.6707 2.5,22.5C 1.6829,20.0314 1.1829,17.3647 1,14.5C 0.617425,15.056 0.117425,15.3893 -0.5,15.5C -0.5,13.1667 -0.5,10.8333 -0.5,8.5C 2.83333,5.83333 5.83333,2.83333 8.5,-0.5 Z"/></g>
<g><path style="opacity:1" fill="#4b8eea" d="M 15.5,-0.5 C 17.5,-0.5 19.5,-0.5 21.5,-0.5C 17.5,3.83333 13.5,8.16667 9.5,12.5C 7.83333,11.1667 6.16667,11.1667 4.5,12.5C 7.76828,7.89273 11.4349,3.5594 15.5,-0.5 Z"/></g>
<g><path style="opacity:1" fill="#4d8ae6" d="M 21.5,-0.5 C 22.5,-0.5 23.5,-0.5 24.5,-0.5C 21.0648,3.43786 17.3981,7.27119 13.5,11C 14.4158,11.2784 15.0825,11.7784 15.5,12.5C 13.5,12.5 11.5,12.5 9.5,12.5C 13.5,8.16667 17.5,3.83333 21.5,-0.5 Z"/></g>
<g><path style="opacity:1" fill="#3879dc" d="M 28.5,-0.5 C 29.5,-0.5 30.5,-0.5 31.5,-0.5C 31.5,-0.166667 31.5,0.166667 31.5,0.5C 27.1024,3.89473 23.4357,7.89473 20.5,12.5C 19.8505,14.4352 19.5172,16.4352 19.5,18.5C 18.8333,17.8333 18.1667,17.1667 17.5,16.5C 17.5674,15.0413 17.2341,13.7079 16.5,12.5C 20.5,8.16667 24.5,3.83333 28.5,-0.5 Z"/></g>
<g><path style="opacity:1" fill="#3071d7" d="M 31.5,0.5 C 31.5,3.16667 31.5,5.83333 31.5,8.5C 30.8333,8.83333 30.1667,9.16667 29.5,9.5C 29.5,9.16667 29.5,8.83333 29.5,8.5C 28.791,7.59603 27.791,7.26269 26.5,7.5C 26.5,9.16667 26.5,10.8333 26.5,12.5C 24.5487,11.3586 22.5487,11.3586 20.5,12.5C 23.4357,7.89473 27.1024,3.89473 31.5,0.5 Z"/></g>
<g><path style="opacity:1" fill="#3d7fe0" d="M 24.5,-0.5 C 25.8333,-0.5 27.1667,-0.5 28.5,-0.5C 24.5,3.83333 20.5,8.16667 16.5,12.5C 16.1667,12.5 15.8333,12.5 15.5,12.5C 15.0825,11.7784 14.4158,11.2784 13.5,11C 17.3981,7.27119 21.0648,3.43786 24.5,-0.5 Z"/></g>
<g><path style="opacity:1" fill="#8eb0e8" d="M 29.5,8.5 C 28.0221,9.44753 27.0221,10.7809 26.5,12.5C 26.5,10.8333 26.5,9.16667 26.5,7.5C 27.791,7.26269 28.791,7.59603 29.5,8.5 Z"/></g>
<g><path style="opacity:1" fill="#e1eafa" d="M 9.5,12.5 C 11.5,12.5 13.5,12.5 15.5,12.5C 15.8333,12.5 16.1667,12.5 16.5,12.5C 17.2341,13.7079 17.5674,15.0413 17.5,16.5C 17.5,18.5 17.5,20.5 17.5,22.5C 16.5,22.5 15.5,22.5 14.5,22.5C 14.5,19.8333 14.5,17.1667 14.5,14.5C 13.5,14.5 12.5,14.5 11.5,14.5C 11.8064,17.3854 11.4731,20.0521 10.5,22.5C 9.16667,22.5 8.5,21.8333 8.5,20.5C 8.5,18.5 8.5,16.5 8.5,14.5C 7.16667,14.5 5.83333,14.5 4.5,14.5C 5.03562,17.6981 4.36895,20.3647 2.5,22.5C 1.93104,18.6707 2.59771,15.3373 4.5,12.5C 6.16667,11.1667 7.83333,11.1667 9.5,12.5 Z"/></g>
<g><path style="opacity:1" fill="#e8eefa" d="M 29.5,8.5 C 29.5,8.83333 29.5,9.16667 29.5,9.5C 29.5,13.8333 29.5,18.1667 29.5,22.5C 26.8127,22.6641 24.146,22.4974 21.5,22C 20.1772,21.1841 19.5106,20.0174 19.5,18.5C 19.5172,16.4352 19.8505,14.4352 20.5,12.5C 22.5487,11.3586 24.5487,11.3586 26.5,12.5C 27.0221,10.7809 28.0221,9.44753 29.5,8.5 Z"/></g>
<g><path style="opacity:1" fill="#346ad0" d="M 22.5,14.5 C 23.8333,14.5 25.1667,14.5 26.5,14.5C 26.5,16.5 26.5,18.5 26.5,20.5C 21.7398,20.7993 20.4064,18.7993 22.5,14.5 Z"/></g>
<g><path style="opacity:1" fill="#4385e4" d="M 2.5,22.5 C 4.36895,20.3647 5.03562,17.6981 4.5,14.5C 5.83333,14.5 7.16667,14.5 8.5,14.5C 8.5,16.5 8.5,18.5 8.5,20.5C 5.98016,22.8127 2.98016,24.146 -0.5,24.5C -0.5,21.5 -0.5,18.5 -0.5,15.5C 0.117425,15.3893 0.617425,15.056 1,14.5C 1.1829,17.3647 1.6829,20.0314 2.5,22.5 Z"/></g>
<g><path style="opacity:1" fill="#387add" d="M 8.5,20.5 C 8.5,21.8333 9.16667,22.5 10.5,22.5C 6.59385,24.733 3.26052,27.733 0.5,31.5C 0.166667,31.5 -0.166667,31.5 -0.5,31.5C -0.5,29.1667 -0.5,26.8333 -0.5,24.5C 2.98016,24.146 5.98016,22.8127 8.5,20.5 Z"/></g>
<g><path style="opacity:1" fill="#0d4abf" d="M 31.5,8.5 C 31.5,16.1667 31.5,23.8333 31.5,31.5C 28.5,31.5 25.5,31.5 22.5,31.5C 24.8333,28.8333 27.1667,26.1667 29.5,23.5C 29.5,23.1667 29.5,22.8333 29.5,22.5C 29.5,18.1667 29.5,13.8333 29.5,9.5C 30.1667,9.16667 30.8333,8.83333 31.5,8.5 Z"/></g>
<g><path style="opacity:1" fill="#2e70d6" d="M 17.5,22.5 C 14.1938,25.1395 11.1938,28.1395 8.5,31.5C 5.83333,31.5 3.16667,31.5 0.5,31.5C 3.26052,27.733 6.59385,24.733 10.5,22.5C 11.4731,20.0521 11.8064,17.3854 11.5,14.5C 12.5,14.5 13.5,14.5 14.5,14.5C 14.5,17.1667 14.5,19.8333 14.5,22.5C 15.5,22.5 16.5,22.5 17.5,22.5 Z"/></g>
<g><path style="opacity:1" fill="#2361cd" d="M 17.5,16.5 C 18.1667,17.1667 18.8333,17.8333 19.5,18.5C 19.5106,20.0174 20.1772,21.1841 21.5,22C 24.146,22.4974 26.8127,22.6641 29.5,22.5C 29.5,22.8333 29.5,23.1667 29.5,23.5C 23.1878,23.1198 18.5211,25.7864 15.5,31.5C 13.1667,31.5 10.8333,31.5 8.5,31.5C 11.1938,28.1395 14.1938,25.1395 17.5,22.5C 17.5,20.5 17.5,18.5 17.5,16.5 Z"/></g>
<g><path style="opacity:1" fill="#104fc2" d="M 29.5,23.5 C 27.1667,26.1667 24.8333,28.8333 22.5,31.5C 20.1667,31.5 17.8333,31.5 15.5,31.5C 18.5211,25.7864 23.1878,23.1198 29.5,23.5 Z"/></g>
</svg>
